<svg width="412" height="113" viewBox="0 0 412 113" fill="none" xmlns="http://www.w3.org/2000/svg">
<rect y="6.10352e-05" width="90" height="90" rx="45" fill="#FAA419"/>
<path d="M59.0899 15.0001C54.7595 14.9907 50.5822 16.6013 47.379 19.5152L31.1335 35.512C28.7888 37.8713 27.1952 40.8721 26.5537 44.1359C25.9122 47.3998 26.2516 50.7805 27.529 53.8517L29.6248 58.3039H39.3327L39.1704 57.9677L35.5622 50.4997C34.9579 48.9965 34.8045 47.3498 35.1207 45.7609C35.4369 44.1719 36.2091 42.7095 37.3428 41.5521L53.3659 25.7659C54.9426 24.3644 56.9804 23.593 59.0899 23.599C61.3384 23.585 63.5007 24.4636 65.1021 26.042C66.7036 27.6204 67.6135 29.7696 67.6321 32.0181C67.6409 34.1999 66.7857 36.2964 65.2535 37.8496L53.6227 49.2952L58.7917 56.4305L71.4693 43.8828C74.6029 40.7297 76.36 36.4638 76.3563 32.0184C76.3563 22.6354 68.6111 15.0004 59.0911 15.0004" fill="white"/>
<path d="M45.4706 45.6876C44.4413 44.4867 43.2575 43.4273 41.9501 42.537L40.166 44.2939C39.5835 44.9012 39.1842 45.6607 39.0141 46.485C38.844 47.3092 38.9101 48.1647 39.2046 48.9531L41.6794 54.0707L50.8895 66.8107H60.7888L45.673 45.9435L45.4706 45.6876Z" fill="white"/>
<path d="M32.2516 62.7347L35.3145 67.018H31.6843C26.1708 67.018 21.6826 62.5943 21.6826 57.1585C21.6815 55.4999 22.1067 53.8688 22.9175 52.4219C21.9913 48.8333 22.0626 45.0599 23.1236 41.5089C20.2724 43.012 17.8839 45.2626 16.214 48.0194C14.5441 50.7762 13.6556 53.9354 13.6438 57.1585C13.6438 66.9638 21.7374 74.9424 31.6843 74.9424H40.9799L41.0219 75.0001H50.8758L42.0908 62.7347H32.2516Z" fill="white"/>
<g clip-path="url(#clip0_186_501)">
<path d="M163.07 44.14C165.44 40.93 166.63 37.36 166.63 33.43C166.63 29.5 165.7 26.35 163.85 23.45C162 20.56 159.6 18.32 156.65 16.73C153.7 15.14 150.58 14.34 147.28 14.34H117.61V75.07H126.98V52.43H143.55L158.04 75.07L169.58 75.16L153.97 51.13C157.67 49.68 160.71 47.36 163.08 44.15L163.07 44.14ZM146.76 43.4H126.98V23.36H145.28C147.42 23.36 149.37 23.78 151.14 24.62C152.9 25.46 154.31 26.63 155.35 28.13C156.39 29.63 156.91 31.37 156.91 33.34C156.91 35.13 156.49 36.8 155.65 38.33C154.81 39.86 153.63 41.09 152.09 42.02C150.56 42.95 148.78 43.41 146.75 43.41L146.76 43.4Z" fill="#54565A"/>
<path d="M278.88 31.56C275.29 29.57 271.27 28.57 266.82 28.57C263.18 28.57 259.86 29.32 256.89 30.83C253.91 32.33 251.61 34.01 249.99 35.86V14.07H241.05V74.8H249.99V69.16C251.73 70.89 254.07 72.46 257.02 73.84C259.97 75.23 263.21 75.92 266.74 75.92C271.31 75.92 275.39 74.91 278.97 72.88C282.55 70.86 285.37 68.05 287.43 64.46C289.48 60.88 290.51 56.77 290.51 52.14C290.51 47.51 289.47 43.42 287.39 39.86C285.31 36.3 282.47 33.53 278.89 31.53L278.88 31.56ZM279.83 60.1C278.44 62.44 276.52 64.29 274.06 65.65C271.6 67.01 268.78 67.69 265.6 67.69C262.42 67.69 259.58 67.01 257.1 65.65C254.61 64.29 252.68 62.44 251.29 60.1C249.9 57.76 249.21 55.11 249.21 52.16C249.21 49.21 249.9 46.58 251.29 44.27C252.68 41.96 254.61 40.12 257.1 38.76C259.59 37.4 262.42 36.72 265.6 36.72C268.78 36.72 271.6 37.4 274.06 38.76C276.52 40.12 278.44 41.96 279.83 44.27C281.22 46.58 281.91 49.21 281.91 52.16C281.91 55.11 281.22 57.76 279.83 60.1Z" fill="#54565A"/>
<path d="M339.78 31.56C336.19 29.57 332.17 28.57 327.72 28.57C324.08 28.57 320.76 29.32 317.79 30.83C314.81 32.33 312.51 34.01 310.89 35.86V14.07H301.95V74.8H310.89V69.16C312.63 70.89 314.97 72.46 317.92 73.84C320.87 75.23 324.11 75.92 327.64 75.92C332.21 75.92 336.29 74.91 339.87 72.88C343.45 70.86 346.27 68.05 348.33 64.46C350.38 60.88 351.41 56.77 351.41 52.14C351.41 47.51 350.37 43.42 348.29 39.86C346.21 36.3 343.37 33.53 339.79 31.53L339.78 31.56ZM340.73 60.1C339.34 62.44 337.42 64.29 334.96 65.65C332.5 67.01 329.68 67.69 326.5 67.69C323.32 67.69 320.48 67.01 318 65.65C315.51 64.29 313.58 62.44 312.19 60.1C310.8 57.76 310.11 55.11 310.11 52.16C310.11 49.21 310.8 46.58 312.19 44.27C313.58 41.96 315.51 40.12 318 38.76C320.49 37.4 323.32 36.72 326.5 36.72C329.68 36.72 332.5 37.4 334.96 38.76C337.42 40.12 339.34 41.96 340.73 44.27C342.12 46.58 342.81 49.21 342.81 52.16C342.81 55.11 342.12 57.76 340.73 60.1Z" fill="#54565A"/>
<path d="M368.14 14.0001C366.12 14.0001 364.61 14.5801 363.63 15.7301C362.65 16.8901 362.16 18.1901 362.16 19.6301C362.16 21.3101 362.65 22.6701 363.63 23.7101C364.61 24.7501 366.12 25.2701 368.14 25.2701C370.16 25.2701 371.67 24.6901 372.65 23.5401C373.63 22.3801 374.12 21.0801 374.12 19.6401C374.12 17.9601 373.63 16.6001 372.65 15.5601C371.67 14.5201 370.16 14.0001 368.14 14.0001Z" fill="#54565A"/>
<path d="M372.66 32.72H363.72V75.06H372.66V32.72Z" fill="#54565A"/>
<path d="M215.4 37.2101C211.02 32.0201 204.59 29.0301 197.78 29.0301C185.06 29.0301 174.71 39.3801 174.71 52.1001C174.71 64.8201 185.06 75.1701 197.78 75.1701L210.21 75.2501H221.92L211.12 59.9501H199.43L202.9 64.8801L203.42 65.6201H197.78C190.32 65.6201 184.26 59.5501 184.26 52.1001C184.26 44.6501 190.33 38.5801 197.78 38.5801C201.69 38.5801 205.41 40.2701 207.98 43.2301L223.08 64.4101H234.84L215.65 37.5301L215.4 37.2001V37.2101Z" fill="#54565A"/>
<path d="M412.32 66.89H407.37C399.26 66.89 392.65 60.29 392.65 52.17V40.86H405.64V32.56H392.65V14.34H384.54V52.18C384.54 64.76 394.78 75 407.36 75L412.39 75.07L412.31 66.9L412.32 66.89Z" fill="#54565A"/>
</g>
<path d="M217.144 106.28C215.8 106.28 214.549 106.028 213.392 105.524C212.253 105.02 211.255 104.32 210.396 103.424C209.537 102.509 208.865 101.455 208.38 100.26C207.913 99.0655 207.68 97.7868 207.68 96.4241C207.68 95.0428 207.913 93.7641 208.38 92.5881C208.847 91.3935 209.509 90.3481 210.368 89.4521C211.227 88.5561 212.225 87.8655 213.364 87.3801C214.503 86.8761 215.744 86.6241 217.088 86.6241C218.432 86.6241 219.673 86.8761 220.812 87.3801C221.969 87.8655 222.968 88.5561 223.808 89.4521C224.667 90.3481 225.339 91.3935 225.824 92.5881C226.309 93.7828 226.552 95.0708 226.552 96.4521C226.552 97.8148 226.309 99.0935 225.824 100.288C225.357 101.483 224.695 102.528 223.836 103.424C222.977 104.32 221.979 105.02 220.84 105.524C219.72 106.028 218.488 106.28 217.144 106.28ZM217.088 104.852C218.619 104.852 219.972 104.488 221.148 103.76C222.343 103.013 223.285 102.005 223.976 100.736C224.667 99.4668 225.012 98.0295 225.012 96.4241C225.012 95.2295 224.807 94.1281 224.396 93.1201C224.004 92.0935 223.453 91.2068 222.744 90.4601C222.035 89.6948 221.195 89.1068 220.224 88.6961C219.272 88.2668 218.227 88.0521 217.088 88.0521C215.576 88.0521 214.223 88.4161 213.028 89.1441C211.852 89.8721 210.919 90.8708 210.228 92.1401C209.556 93.3908 209.22 94.8188 209.22 96.4241C209.22 97.6188 209.416 98.7295 209.808 99.7561C210.2 100.783 210.751 101.679 211.46 102.444C212.169 103.209 213 103.807 213.952 104.236C214.923 104.647 215.968 104.852 217.088 104.852ZM230.303 106V92.9801H231.731V106H230.303ZM231.731 98.2161L231.031 97.9641C231.031 96.3028 231.451 95.0148 232.291 94.1001C233.131 93.1668 234.232 92.7001 235.595 92.7001C236.23 92.7001 236.818 92.8121 237.359 93.0361C237.919 93.2601 238.432 93.6241 238.899 94.1281L237.947 95.1361C237.592 94.7441 237.21 94.4641 236.799 94.2961C236.388 94.1281 235.903 94.0441 235.343 94.0441C234.279 94.0441 233.411 94.4081 232.739 95.1361C232.067 95.8455 231.731 96.8721 231.731 98.2161ZM246.376 106.28C245.144 106.28 244.043 105.981 243.072 105.384C242.102 104.787 241.336 103.984 240.776 102.976C240.216 101.949 239.936 100.792 239.936 99.5041C239.936 98.2161 240.216 97.0588 240.776 96.0321C241.336 95.0055 242.102 94.1935 243.072 93.5961C244.043 92.9988 245.144 92.7001 246.376 92.7001C247.328 92.7001 248.206 92.8868 249.008 93.2601C249.83 93.6335 250.52 94.1748 251.08 94.8841C251.64 95.5748 251.995 96.3961 252.144 97.3481V101.604C251.976 102.537 251.622 103.359 251.08 104.068C250.539 104.759 249.858 105.3 249.036 105.692C248.234 106.084 247.347 106.28 246.376 106.28ZM246.628 104.936C247.618 104.936 248.486 104.703 249.232 104.236C249.979 103.769 250.558 103.135 250.968 102.332C251.398 101.511 251.612 100.568 251.612 99.5041C251.612 98.4215 251.398 97.4788 250.968 96.6761C250.539 95.8548 249.942 95.2108 249.176 94.7441C248.43 94.2775 247.552 94.0441 246.544 94.0441C245.555 94.0441 244.668 94.2775 243.884 94.7441C243.119 95.2108 242.512 95.8548 242.064 96.6761C241.616 97.4788 241.392 98.4121 241.392 99.4761C241.392 100.54 241.616 101.483 242.064 102.304C242.512 103.125 243.128 103.769 243.912 104.236C244.696 104.703 245.602 104.936 246.628 104.936ZM252.984 106H251.556V102.5L251.892 99.3081L251.556 96.1441V86.3441H252.984V106ZM263.174 106.28C261.886 106.28 260.719 105.981 259.674 105.384C258.647 104.787 257.835 103.975 257.238 102.948C256.641 101.921 256.342 100.764 256.342 99.4761C256.342 98.1881 256.631 97.0401 257.21 96.0321C257.789 95.0055 258.582 94.1935 259.59 93.5961C260.617 92.9988 261.755 92.7001 263.006 92.7001C264.201 92.7001 265.246 92.9708 266.142 93.5121C267.057 94.0348 267.766 94.7628 268.27 95.6961C268.793 96.6295 269.054 97.7028 269.054 98.9161C269.054 99.0281 269.045 99.1775 269.026 99.3641C269.007 99.5321 268.979 99.7468 268.942 100.008H257.35V98.7761H268.13L267.654 99.1681C267.691 98.1415 267.523 97.2455 267.15 96.4801C266.777 95.6961 266.235 95.0895 265.526 94.6601C264.817 94.2308 263.967 94.0161 262.978 94.0161C261.951 94.0161 261.046 94.2495 260.262 94.7161C259.478 95.1641 258.862 95.7895 258.414 96.5921C257.985 97.3948 257.77 98.3281 257.77 99.3921C257.77 100.512 257.994 101.492 258.442 102.332C258.909 103.153 259.553 103.797 260.374 104.264C261.195 104.712 262.157 104.936 263.258 104.936C264.098 104.936 264.873 104.787 265.582 104.488C266.31 104.171 266.917 103.704 267.402 103.088L268.354 104.012C267.757 104.721 267.001 105.281 266.086 105.692C265.19 106.084 264.219 106.28 263.174 106.28ZM272.303 106V92.9801H273.731V106H272.303ZM273.731 98.2161L273.031 97.9641C273.031 96.3028 273.451 95.0148 274.291 94.1001C275.131 93.1668 276.232 92.7001 277.595 92.7001C278.23 92.7001 278.818 92.8121 279.359 93.0361C279.919 93.2601 280.432 93.6241 280.899 94.1281L279.947 95.1361C279.592 94.7441 279.21 94.4641 278.799 94.2961C278.388 94.1281 277.903 94.0441 277.343 94.0441C276.279 94.0441 275.411 94.4081 274.739 95.1361C274.067 95.8455 273.731 96.8721 273.731 98.2161ZM303.435 106L294.139 96.4241C293.337 95.6215 292.749 94.8375 292.375 94.0721C292.002 93.3068 291.815 92.4948 291.815 91.6361C291.815 90.6468 292.03 89.7788 292.459 89.0321C292.907 88.2855 293.523 87.6975 294.307 87.2681C295.091 86.8388 295.987 86.6241 296.995 86.6241C297.705 86.6241 298.349 86.7268 298.927 86.9321C299.525 87.1375 300.057 87.4268 300.523 87.8001C300.99 88.1548 301.382 88.5935 301.699 89.1161L300.663 90.0961C300.215 89.4241 299.693 88.9108 299.095 88.5561C298.498 88.1828 297.807 87.9961 297.023 87.9961C295.903 87.9961 294.998 88.3321 294.307 89.0041C293.617 89.6761 293.271 90.5721 293.271 91.6921C293.271 92.4201 293.43 93.0828 293.747 93.6801C294.065 94.2775 294.597 94.9588 295.343 95.7241L305.283 106H303.435ZM295.931 106.28C294.755 106.28 293.71 106.037 292.795 105.552C291.899 105.067 291.19 104.404 290.667 103.564C290.163 102.724 289.911 101.753 289.911 100.652C289.911 99.4761 290.229 98.3935 290.863 97.4041C291.498 96.3961 292.366 95.6308 293.467 95.1081L294.223 96.0321C293.365 96.4428 292.665 97.0681 292.123 97.9081C291.601 98.7295 291.339 99.6441 291.339 100.652C291.339 101.492 291.535 102.229 291.927 102.864C292.338 103.499 292.889 104.003 293.579 104.376C294.289 104.731 295.091 104.908 295.987 104.908C297.014 104.908 297.938 104.675 298.759 104.208C299.581 103.741 300.206 103.116 300.635 102.332L301.587 103.368C301.233 103.947 300.757 104.46 300.159 104.908C299.581 105.337 298.927 105.673 298.199 105.916C297.49 106.159 296.734 106.28 295.931 106.28ZM314.279 106V104.628H320.215C321.82 104.628 323.229 104.283 324.443 103.592C325.675 102.883 326.636 101.912 327.327 100.68C328.017 99.4481 328.363 98.0295 328.363 96.4241C328.363 94.8375 328.017 93.4281 327.327 92.1961C326.636 90.9641 325.675 90.0028 324.443 89.3121C323.211 88.6215 321.801 88.2761 320.215 88.2761H314.363V86.9041H320.243C321.643 86.9041 322.931 87.1468 324.107 87.6321C325.283 88.0988 326.3 88.7615 327.159 89.6201C328.036 90.4601 328.708 91.4681 329.175 92.6441C329.66 93.8015 329.903 95.0708 329.903 96.4521C329.903 97.8148 329.66 99.0841 329.175 100.26C328.708 101.417 328.045 102.425 327.187 103.284C326.328 104.143 325.311 104.815 324.135 105.3C322.959 105.767 321.68 106 320.299 106H314.279ZM313.495 106V86.9041H314.979V106H313.495ZM339.682 106.28C338.394 106.28 337.227 105.981 336.182 105.384C335.155 104.787 334.343 103.975 333.746 102.948C333.149 101.921 332.85 100.764 332.85 99.4761C332.85 98.1881 333.139 97.0401 333.718 96.0321C334.297 95.0055 335.09 94.1935 336.098 93.5961C337.125 92.9988 338.263 92.7001 339.514 92.7001C340.709 92.7001 341.754 92.9708 342.65 93.5121C343.565 94.0348 344.274 94.7628 344.778 95.6961C345.301 96.6295 345.562 97.7028 345.562 98.9161C345.562 99.0281 345.553 99.1775 345.534 99.3641C345.515 99.5321 345.487 99.7468 345.45 100.008H333.858V98.7761H344.638L344.162 99.1681C344.199 98.1415 344.031 97.2455 343.658 96.4801C343.285 95.6961 342.743 95.0895 342.034 94.6601C341.325 94.2308 340.475 94.0161 339.486 94.0161C338.459 94.0161 337.554 94.2495 336.77 94.7161C335.986 95.1641 335.37 95.7895 334.922 96.5921C334.493 97.3948 334.278 98.3281 334.278 99.3921C334.278 100.512 334.502 101.492 334.95 102.332C335.417 103.153 336.061 103.797 336.882 104.264C337.703 104.712 338.665 104.936 339.766 104.936C340.606 104.936 341.381 104.787 342.09 104.488C342.818 104.171 343.425 103.704 343.91 103.088L344.862 104.012C344.265 104.721 343.509 105.281 342.594 105.692C341.698 106.084 340.727 106.28 339.682 106.28ZM348.811 106V86.3441H350.239V106H348.811ZM354.472 106V92.9801H355.872V106H354.472ZM355.172 89.9561C354.854 89.9561 354.584 89.8441 354.36 89.6201C354.154 89.3775 354.052 89.0975 354.052 88.7801C354.052 88.4628 354.154 88.2015 354.36 87.9961C354.584 87.7721 354.854 87.6601 355.172 87.6601C355.489 87.6601 355.76 87.7721 355.984 87.9961C356.208 88.2015 356.32 88.4628 356.32 88.7801C356.32 89.0975 356.208 89.3775 355.984 89.6201C355.76 89.8441 355.489 89.9561 355.172 89.9561ZM364.779 106L358.703 92.9801H360.271L365.647 104.796H364.779L370.183 92.9801H371.723L365.619 106H364.779ZM379.85 106.28C378.562 106.28 377.395 105.981 376.35 105.384C375.323 104.787 374.511 103.975 373.914 102.948C373.316 101.921 373.018 100.764 373.018 99.4761C373.018 98.1881 373.307 97.0401 373.886 96.0321C374.464 95.0055 375.258 94.1935 376.266 93.5961C377.292 92.9988 378.431 92.7001 379.682 92.7001C380.876 92.7001 381.922 92.9708 382.818 93.5121C383.732 94.0348 384.442 94.7628 384.946 95.6961C385.468 96.6295 385.73 97.7028 385.73 98.9161C385.73 99.0281 385.72 99.1775 385.702 99.3641C385.683 99.5321 385.655 99.7468 385.618 100.008H374.026V98.7761H384.806L384.33 99.1681C384.367 98.1415 384.199 97.2455 383.826 96.4801C383.452 95.6961 382.911 95.0895 382.202 94.6601C381.492 94.2308 380.643 94.0161 379.654 94.0161C378.627 94.0161 377.722 94.2495 376.938 94.7161C376.154 95.1641 375.538 95.7895 375.09 96.5921C374.66 97.3948 374.446 98.3281 374.446 99.3921C374.446 100.512 374.67 101.492 375.118 102.332C375.584 103.153 376.228 103.797 377.05 104.264C377.871 104.712 378.832 104.936 379.934 104.936C380.774 104.936 381.548 104.787 382.258 104.488C382.986 104.171 383.592 103.704 384.078 103.088L385.03 104.012C384.432 104.721 383.676 105.281 382.762 105.692C381.866 106.084 380.895 106.28 379.85 106.28ZM388.979 106V92.9801H390.407V106H388.979ZM390.407 98.2161L389.707 97.9641C389.707 96.3028 390.127 95.0148 390.967 94.1001C391.807 93.1668 392.908 92.7001 394.271 92.7001C394.906 92.7001 395.494 92.8121 396.035 93.0361C396.595 93.2601 397.108 93.6241 397.575 94.1281L396.623 95.1361C396.268 94.7441 395.886 94.4641 395.475 94.2961C395.064 94.1281 394.579 94.0441 394.019 94.0441C392.955 94.0441 392.087 94.4081 391.415 95.1361C390.743 95.8455 390.407 96.8721 390.407 98.2161ZM404.013 106.028L398.217 92.9801H399.785L404.797 104.544H404.069L409.305 92.9801H410.873L404.741 106.028H404.013ZM400.625 111.516L403.985 104.628L404.741 106.028L402.165 111.516H400.625Z" fill="#FAA419"/>
<defs>
<clipPath id="clip0_186_501">
<rect width="294" height="62" fill="white" transform="translate(118 14.0001)"/>
</clipPath>
</defs>
</svg>
